# xmcd
#
# Track frame offsets: 
#        150
#        22467
#        39824
#        54931
#        73978
#        103765
#        126957
#        146394
#        171936
#        192613
#        207155
#
# Disc length: 2905 seconds
#
# Revision: 0
# Processed by: cddbd v1.5.1PL0 Copyright (c) Steve Scherf et al.
# Submitted via: ExactAudioCopy v0.95a4
#
DISCID=a70b570b
DTITLE=Las Guitarras de Espana - Donde esta Paco
DYEAR=1900
DGENRE=A Cappella
TTITLE0=Donde esta Paco
TTITLE1=Gitana Bonita
TTITLE2=Sevillanas
TTITLE3=Mar
TTITLE4=Asturias
TTITLE5=Conciencia
TTITLE6=Bulerias
TTITLE7=Bienvenidos
TTITLE8=Azul Amargo
TTITLE9=Tangos
TTITLE10=Romance
EXTD=
EXTT0=
EXTT1=
EXTT2=
EXTT3=
EXTT4=
EXTT5=
EXTT6=
EXTT7=
EXTT8=
EXTT9=
EXTT10=
PLAYORDER=
